<?xml version="1.0" encoding="UTF-8" standalone="no"?>
<!-- Created with Inkscape (http://www.inkscape.org/) -->

<svg
   xmlns:dc="http://purl.org/dc/elements/1.1/"
   xmlns:cc="http://creativecommons.org/ns#"
   xmlns:rdf="http://www.w3.org/1999/02/22-rdf-syntax-ns#"
   xmlns:svg="http://www.w3.org/2000/svg"
   xmlns="http://www.w3.org/2000/svg"
   xmlns:xlink="http://www.w3.org/1999/xlink"
   xmlns:sodipodi="http://sodipodi.sourceforge.net/DTD/sodipodi-0.dtd"
   xmlns:inkscape="http://www.inkscape.org/namespaces/inkscape"
   width="99.239372mm"
   height="155.26758mm"
   viewBox="0 0 351.63557 550.16071"
   id="svg8234"
   version="1.1"
   inkscape:version="0.91 r"
   sodipodi:docname="map.svg">
  <defs
     id="defs8236" />
  <sodipodi:namedview
     id="base"
     pagecolor="#ffffff"
     bordercolor="#666666"
     borderopacity="1.0"
     inkscape:pageopacity="0.0"
     inkscape:pageshadow="2"
     inkscape:zoom="0.98994949"
     inkscape:cx="53.254796"
     inkscape:cy="258.28237"
     inkscape:document-units="px"
     inkscape:current-layer="g8140"
     showgrid="false"
     fit-margin-top="0"
     fit-margin-left="0"
     fit-margin-right="0"
     fit-margin-bottom="0"
     inkscape:window-width="1920"
     inkscape:window-height="1053"
     inkscape:window-x="0"
     inkscape:window-y="27"
     inkscape:window-maximized="1" />
  <metadata
     id="metadata8239">
    <rdf:RDF>
      <cc:Work
         rdf:about="">
        <dc:format>image/svg+xml</dc:format>
        <dc:type
           rdf:resource="http://purl.org/dc/dcmitype/StillImage" />
        <dc:title></dc:title>
      </cc:Work>
    </rdf:RDF>
  </metadata>
  <g
     inkscape:label="Layer 1"
     inkscape:groupmode="layer"
     id="layer1"
     transform="translate(-49.896501,-20.138992)">
    <g
       id="g8140"
       transform="matrix(0.90864039,0,0,0.90864039,-66.232954,-847.9484)"
       style="display:inline;stroke:none">
      <g
         transform="matrix(1.4907163,0,0,1.4780516,-153.54949,1.0824593)"
         id="g8142"
         style="fill:#ffa018;fill-opacity:1;stroke:none">
        <use
           height="100%"
           width="100%"
           x="0"
           y="0"
           xlink:href="#g5539-8"
           id="use8144"
           style="fill:#ffa018;fill-opacity:1;stroke:none;stroke-width:7.41422319;stroke-opacity:1" />
        <g
           style="opacity:1;fill:#ffa018;fill-opacity:1;stroke:none"
           transform="matrix(1.4301244,0.06249696,-0.06249696,1.4301244,196.66033,639.89609)"
           id="g8146">
          <path
             style="opacity:0.9;fill:#ffa018;fill-opacity:1;stroke:none"
             inkscape:connector-curvature="0"
             d="m 14.5,282.134 c 0,0 9.75,0.75 9.25,6.75 0,0 4.25,-2.75 5.25,-6.5 1,-3.75 6,0 6,0 0,0 2,-3.75 2.25,-4.5 0.25,-0.75 20.5,9.75 21.5,10 1,0.25 8.25,-15 8.25,-15 0,0 28.25,8.5 29.5,8.25 1.25,-0.25 0.75,-4.5 0.75,-4.5 l 14.25,0.75 -1.5,-6 12.5,9 14.5,-1 7.25,4.75 14,-6 1.5,2 4,-4.5 7,-0.75 2,-10.5 -11.5,1.75 -1.5,-6 c 0,0 -8,-0.25 -7.5,-1 0.5,-0.75 10.5,-0.75 10.5,-0.75 l 3,-5.75 c 0,0 -4.25,-1.25 -4.5,-1.5 -0.25,-0.25 7.25,0 7.25,0 l 3.5,-2.25 -2.75,-3.75 5,1.25 c 0,0 14.75,-14 11,-23.5 -3.75,-9.5 -17.5,-14.5 -23.75,-14 -6.25,0.5 -5.083,5.751 -5.083,5.751 0,0 -4.167,-0.5 -5.5,-4 0,0 1,-3.166 5.5,-4.833 4.5,-1.667 -0.501,-12.167 -2.667,-16.167 -2.166,-4 0.168,-2.667 2.334,-3.667 2.166,-1 -2.501,-7.834 -4.834,-12 -2.333,-4.166 1.125,-4.584 3,-6.334 1.875,-1.75 -3.5,-5.25 -6.125,-7.375 -2.625,-2.125 -3.625,-11.625 -12.5,-12 -8.875,-0.375 -5,-28.75 -3.75,-33.125 1.25,-4.375 -4.625,-0.5 -7.625,-12.333 -3,-11.833 -8.333,-7.5 -11.167,-7.833 -2.834,-0.333 -11,3.167 -12.333,-0.167 -1.333,-3.334 5,-2.667 7.333,-2.333 2.333,0.334 1.5,-1 2.667,-2.833 1.167,-1.833 8.333,6 8,-0.333 -0.333,-6.333 -4.167,-6 -4.167,-6 l 1.833,-2.167 c 0,0 18.833,-17 19,-24.167 0.167,-7.167 5.833,-4.167 5.833,-9.167 0,-5 -18.667,-8.167 -21.667,-7.667 -3,0.5 -6.833,-4.167 -9,-2.667 -2.167,1.5 -6,4 -7.333,3.167 -1.333,-0.833 -8.333,1.333 -8.167,-1 0.166,-2.333 3.333,-5.166 4.833,-3.833 1.5,1.333 3.167,0.5 3.167,0.5 0,0 3,-2.667 3.333,-3.5 0.333,-0.833 -2.333,-1 -3.667,-1 -1.334,0 -1.667,-0.833 -1.167,-1.333 0.5,-0.5 19.5,-13.333 20,-14.167 0.5,-0.834 3.666,-5 3.833,-7.5 0.167,-2.5 -23.5,-3.5 -23.833,-2.167 -0.333,1.333 -2.5,3.5 -2.5,3.5 0,0 -0.333,-2.833 -1,-4.667 -0.667,-1.834 -6.5,-8.167 -7.5,-4.167 -1,4 -1.667,6.5 -2.667,6.5 -1,0 -7,2.333 1.667,6 0,0 -1.167,3.667 -4.333,1 -3.166,-2.667 -3.667,-3.333 -3,0.333 l 0.167,3.833 -3.667,-2.5 c 0,0 -2.375,2.417 0.375,4.667 0,0 3,1.875 1.375,3 -1.625,1.125 -2.25,0.25 -4.25,-1.875 -2,-2.125 -2.625,1.875 -1.5,4.25 1.125,2.375 -1.125,1.375 -2,0 -0.875,-1.375 -2.25,-4.25 -3.25,-2.375 -1,1.875 1.25,8.25 3.25,10.75 2,2.5 0.875,10.5 0.625,10.875 -0.25,0.375 -6.25,-1.125 -5.625,0.875 0.625,2 6.625,3.375 4.625,5.125 -2,1.75 -4.5,2.125 -6.375,0.125 -1.875,-2 -7.125,1.5 -4,5.125 3.125,3.625 1.125,3.75 -1.375,2.625 -2.5,-1.125 -6.125,-2.25 -5.875,0.25 0.25,2.5 0.375,2.875 0.375,2.875 0,0 -4.25,-0.5 -3.375,1.5 0.875,2 4.5,0.75 5.25,2.375 0.75,1.625 -1.375,4.875 -3.625,5 -2.25,0.125 -6.875,-0.625 -4.25,2.25 2.625,2.875 11.375,1.125 13.5,-2 2.125,-3.125 2.875,-4.125 3.5,-4.625 0.625,-0.5 3.125,-2.375 3.125,-2.375 L 73,62.759 l 0.5,2 -5.5,3.75 -1.75,3.75 -3.625,3.5 c 0.25,2.5 -0.5,8 -0.5,8 l -5.375,3.25 c 0,0 3.375,0.375 4.5,-0.375 1.125,-0.75 -3.625,4 -3.625,4 l 2.25,2.25 c 0,0 -4.25,2.25 -4.75,6.25 -0.5,4 -3.5,7.25 -4.25,7.75 -0.75,0.5 -1.25,3 1,3.125 2.25,0.125 5,-1.5 5,-1.5 l 1.5,-4.375 0.875,-2.625 1.375,-4.625 3.25,-2.125 0.375,-4 -1,-3.25 10.875,-6.5 c 0,0 -0.375,5.75 0.75,8.375 1.125,2.625 5.5,3.375 5.5,3.375 l -6.75,-0.875 c 0,0 -2.375,6.875 -2.375,7.5 0,0.625 3.5,7.25 3.5,7.25 l -5.5,5.625 -5.25,7.5 -0.5,4.375 c 0,0 -3.125,0.5 -3.5,0.625 -0.375,0.125 5.75,4.875 5.75,4.875 l 1.625,-2.125 5.625,8.25 2,-2.625 c 0,0 -0.375,-5.25 -0.375,-5.5 0,-0.25 5.5,6.875 5.5,6.875 l 3.75,-0.75 c 0,0 4.5,-4.25 6.25,-2.25 1.75,2 3.875,-2.125 3.875,-2.125 l 3.25,1.125 3.625,0.125 -0.75,1.75 c 0,0 -6,-1 -6.625,1.25 -0.625,2.25 -6.625,9.5 -6.625,9.5 0,0 1.875,2.25 3,5.75 1.125,3.5 -0.625,5.875 -0.625,5.875 l 1.375,1.25 2.5,-1.25 -0.25,4.625 0,0.625 2.875,0.875 3.875,-4.5 0.875,2.5 -2.875,3.75 1.125,1.75 -0.625,1.75 -4.875,-0.75 -1,3.625 3.5,2.625 -0.125,1.75 -5,3.625 0.75,4.25 6.5,4.625 -2.25,2.5 -4.625,-6.125 -2,1.875 1.875,2.875 -2.125,2.375 -1.625,-4.5 c 0,0 -3.875,-1.875 -5,-0.25 -1.125,1.625 -3.125,2.125 -4.25,0.75 -1.125,-1.375 -2.5,-3.25 -2.5,-3.25 0,0 -2.125,2.125 -2.25,2.5 -0.125,0.375 -4.375,0.25 -4.375,0.25 l 1.5,-3.25 -6,-6.375 -3.75,3.5 3.625,7.25 -4.75,5.75 c 0,0 -4.875,3.125 -4.875,2.625 0,-0.5 2,4.625 2,4.625 l 6.875,-5 4,5.125 0.125,9.5 -11.5,10 -5.5,-0.625 -3.75,4.625 -10.125,-1.625 -0.875,9.125 2.5,1.375 2.375,4.125 5.5,0.375 3,-3.375 5.625,0.125 0.875,8.375 4.125,-0.375 2.125,-2 2.875,0.875 2.125,6.75 5,4.25 4.125,-0.625 4.625,-4.875 3.25,0.75 2.375,1.25 -5.25,4.25 -1.875,4.25 c 0,0 0.25,0.625 -0.125,0.625 -0.375,0 -6.5,1.375 -6.5,1.375 L 64,252.259 c 0,0 -8.5,0.5 -8.75,0.125 -0.25,-0.375 -3.875,6.375 -3.875,6.375 l -3,0 -1.75,-3.25 -3.25,3.125 1.5,5 -7.75,5.75 c 0,0 -1.875,-0.75 -2.375,-0.75 -0.5,0 -2.25,3.875 -2.25,3.875 0,0 -4.125,2.125 -4,1.875 0.125,-0.25 -1.375,3.625 -1.375,3.625 l -9.125,0.125 -3.75,0.5 0.25,3.5 z"
             id="path8148" />
          <path
             style="fill:#ffa018;fill-opacity:1;stroke:none"
             inkscape:connector-curvature="0"
             d="m 0,126.759 10.5,13.375 5.875,-0.125 1.125,-6.125 5.375,-1.125 0.75,6.625 4.125,3.125 -1.75,3.5 4.75,1.375 1.375,-2.375 4.5,3.25 3,-0.375 2.75,-5.125 8,-0.625 0.75,-11.125 -5.375,0.875 -2.625,-1 5.875,-5.125 -0.375,-2.75 -3.375,-1.625 -0.75,-4 0.75,-5.125 -6.375,-3.875 -4.25,0 -1.75,1.625 -4.5,-1.5 -2.375,4.5 -3.375,-0.625 c 0,0 -2.125,-1.375 -2.5,-1.375 -0.375,0 -5,8.75 -5,8.75 l -6.25,-0.5 2.125,4.25 -11,3.25 z"
             id="path8150" />
        </g>
      </g>
      <text
         xml:space="preserve"
         style="color:#000000;font-style:normal;font-variant:normal;font-weight:normal;font-stretch:normal;font-size:41.64332962px;line-height:125%;font-family:'Source Sans Pro';-inkscape-font-specification:'Source Sans Pro';text-indent:0;text-align:start;text-decoration:none;text-decoration-line:none;text-decoration-style:solid;text-decoration-color:#000000;letter-spacing:0px;word-spacing:0px;text-transform:none;direction:ltr;block-progression:tb;writing-mode:lr-tb;baseline-shift:baseline;text-anchor:start;white-space:normal;clip-rule:nonzero;display:inline;overflow:visible;visibility:visible;opacity:1;isolation:auto;mix-blend-mode:normal;color-interpolation:sRGB;color-interpolation-filters:linearRGB;solid-color:#000000;solid-opacity:1;fill:#000000;fill-opacity:1;fill-rule:nonzero;stroke:none;stroke-width:1px;stroke-linecap:butt;stroke-linejoin:miter;stroke-miterlimit:4;stroke-dasharray:none;stroke-dashoffset:0;stroke-opacity:1;color-rendering:auto;image-rendering:auto;shape-rendering:auto;text-rendering:auto;enable-background:accumulate"
         x="380.20676"
         y="1470.0204"
         id="text8152"
         sodipodi:linespacing="125%"><tspan
           sodipodi:role="line"
           id="tspan8154"
           x="380.20676"
           y="1470.0204">✘</tspan></text>
      <text
         xml:space="preserve"
         style="color:#000000;font-style:normal;font-variant:normal;font-weight:normal;font-stretch:normal;font-size:41.64332962px;line-height:125%;font-family:'Source Sans Pro';-inkscape-font-specification:'Source Sans Pro';text-indent:0;text-align:start;text-decoration:none;text-decoration-line:none;text-decoration-style:solid;text-decoration-color:#000000;letter-spacing:0px;word-spacing:0px;text-transform:none;direction:ltr;block-progression:tb;writing-mode:lr-tb;baseline-shift:baseline;text-anchor:start;white-space:normal;clip-rule:nonzero;display:inline;overflow:visible;visibility:visible;opacity:1;isolation:auto;mix-blend-mode:normal;color-interpolation:sRGB;color-interpolation-filters:linearRGB;solid-color:#000000;solid-opacity:1;fill:#000000;fill-opacity:1;fill-rule:nonzero;stroke:none;stroke-width:1px;stroke-linecap:butt;stroke-linejoin:miter;stroke-miterlimit:4;stroke-dasharray:none;stroke-dashoffset:0;stroke-opacity:1;color-rendering:auto;image-rendering:auto;shape-rendering:auto;text-rendering:auto;enable-background:accumulate"
         x="391.20676"
         y="1492.0204"
         id="text8156"
         sodipodi:linespacing="125%"><tspan
           sodipodi:role="line"
           id="tspan8158"
           x="391.20676"
           y="1492.0204">✘</tspan></text>
      <text
         xml:space="preserve"
         style="color:#000000;font-style:normal;font-variant:normal;font-weight:normal;font-stretch:normal;font-size:41.64332962px;line-height:125%;font-family:'Source Sans Pro';-inkscape-font-specification:'Source Sans Pro';text-indent:0;text-align:start;text-decoration:none;text-decoration-line:none;text-decoration-style:solid;text-decoration-color:#000000;letter-spacing:0px;word-spacing:0px;text-transform:none;direction:ltr;block-progression:tb;writing-mode:lr-tb;baseline-shift:baseline;text-anchor:start;white-space:normal;clip-rule:nonzero;display:inline;overflow:visible;visibility:visible;opacity:1;isolation:auto;mix-blend-mode:normal;color-interpolation:sRGB;color-interpolation-filters:linearRGB;solid-color:#000000;solid-opacity:1;fill:#793588;fill-opacity:1;fill-rule:nonzero;stroke:none;stroke-width:1px;stroke-linecap:butt;stroke-linejoin:miter;stroke-miterlimit:4;stroke-dasharray:none;stroke-dashoffset:0;stroke-opacity:1;color-rendering:auto;image-rendering:auto;shape-rendering:auto;text-rendering:auto;enable-background:accumulate"
         x="339.20676"
         y="1516.0204"
         id="text8160"
         sodipodi:linespacing="125%"><tspan
           sodipodi:role="line"
           id="tspan8162"
           x="339.20676"
           y="1516.0204">✘</tspan></text>
      <text
         xml:space="preserve"
         style="color:#000000;font-style:normal;font-variant:normal;font-weight:normal;font-stretch:normal;font-size:41.64332962px;line-height:125%;font-family:'Source Sans Pro';-inkscape-font-specification:'Source Sans Pro';text-indent:0;text-align:start;text-decoration:none;text-decoration-line:none;text-decoration-style:solid;text-decoration-color:#000000;letter-spacing:0px;word-spacing:0px;text-transform:none;direction:ltr;block-progression:tb;writing-mode:lr-tb;baseline-shift:baseline;text-anchor:start;white-space:normal;clip-rule:nonzero;display:inline;overflow:visible;visibility:visible;opacity:1;isolation:auto;mix-blend-mode:normal;color-interpolation:sRGB;color-interpolation-filters:linearRGB;solid-color:#000000;solid-opacity:1;fill:#000000;fill-opacity:1;fill-rule:nonzero;stroke:none;stroke-width:1px;stroke-linecap:butt;stroke-linejoin:miter;stroke-miterlimit:4;stroke-dasharray:none;stroke-dashoffset:0;stroke-opacity:1;color-rendering:auto;image-rendering:auto;shape-rendering:auto;text-rendering:auto;enable-background:accumulate"
         x="255.20676"
         y="1520.0204"
         id="text8164"
         sodipodi:linespacing="125%"><tspan
           sodipodi:role="line"
           id="tspan8166"
           x="255.20676"
           y="1520.0204">✘</tspan></text>
      <text
         xml:space="preserve"
         style="color:#000000;font-style:normal;font-variant:normal;font-weight:normal;font-stretch:normal;font-size:41.64332962px;line-height:125%;font-family:'Source Sans Pro';-inkscape-font-specification:'Source Sans Pro';text-indent:0;text-align:start;text-decoration:none;text-decoration-line:none;text-decoration-style:solid;text-decoration-color:#000000;letter-spacing:0px;word-spacing:0px;text-transform:none;direction:ltr;block-progression:tb;writing-mode:lr-tb;baseline-shift:baseline;text-anchor:start;white-space:normal;clip-rule:nonzero;display:inline;overflow:visible;visibility:visible;opacity:1;isolation:auto;mix-blend-mode:normal;color-interpolation:sRGB;color-interpolation-filters:linearRGB;solid-color:#000000;solid-opacity:1;fill:#000000;fill-opacity:1;fill-rule:nonzero;stroke:none;stroke-width:1px;stroke-linecap:butt;stroke-linejoin:miter;stroke-miterlimit:4;stroke-dasharray:none;stroke-dashoffset:0;stroke-opacity:1;color-rendering:auto;image-rendering:auto;shape-rendering:auto;text-rendering:auto;enable-background:accumulate"
         x="372.20676"
         y="1376.0204"
         id="text8168"
         sodipodi:linespacing="125%"><tspan
           sodipodi:role="line"
           id="tspan8170"
           x="372.20676"
           y="1376.0204">✘</tspan></text>
      <text
         xml:space="preserve"
         style="color:#000000;font-style:normal;font-variant:normal;font-weight:normal;font-stretch:normal;font-size:41.64332962px;line-height:125%;font-family:'Source Sans Pro';-inkscape-font-specification:'Source Sans Pro';text-indent:0;text-align:start;text-decoration:none;text-decoration-line:none;text-decoration-style:solid;text-decoration-color:#000000;letter-spacing:0px;word-spacing:0px;text-transform:none;direction:ltr;block-progression:tb;writing-mode:lr-tb;baseline-shift:baseline;text-anchor:start;white-space:normal;clip-rule:nonzero;display:inline;overflow:visible;visibility:visible;opacity:1;isolation:auto;mix-blend-mode:normal;color-interpolation:sRGB;color-interpolation-filters:linearRGB;solid-color:#000000;solid-opacity:1;fill:#000000;fill-opacity:1;fill-rule:nonzero;stroke:none;stroke-width:1px;stroke-linecap:butt;stroke-linejoin:miter;stroke-miterlimit:4;stroke-dasharray:none;stroke-dashoffset:0;stroke-opacity:1;color-rendering:auto;image-rendering:auto;shape-rendering:auto;text-rendering:auto;enable-background:accumulate"
         x="318.20676"
         y="1388.0204"
         id="text8172"
         sodipodi:linespacing="125%"><tspan
           sodipodi:role="line"
           id="tspan8174"
           x="318.20676"
           y="1388.0204">✘</tspan></text>
      <text
         xml:space="preserve"
         style="color:#000000;font-style:normal;font-variant:normal;font-weight:normal;font-stretch:normal;font-size:41.64332962px;line-height:125%;font-family:'Source Sans Pro';-inkscape-font-specification:'Source Sans Pro';text-indent:0;text-align:start;text-decoration:none;text-decoration-line:none;text-decoration-style:solid;text-decoration-color:#000000;letter-spacing:0px;word-spacing:0px;text-transform:none;direction:ltr;block-progression:tb;writing-mode:lr-tb;baseline-shift:baseline;text-anchor:start;white-space:normal;clip-rule:nonzero;display:inline;overflow:visible;visibility:visible;opacity:1;isolation:auto;mix-blend-mode:normal;color-interpolation:sRGB;color-interpolation-filters:linearRGB;solid-color:#000000;solid-opacity:1;fill:#793588;fill-opacity:1;fill-rule:nonzero;stroke:none;stroke-width:1px;stroke-linecap:butt;stroke-linejoin:miter;stroke-miterlimit:4;stroke-dasharray:none;stroke-dashoffset:0;stroke-opacity:1;color-rendering:auto;image-rendering:auto;shape-rendering:auto;text-rendering:auto;enable-background:accumulate"
         x="313.20676"
         y="1427.0204"
         id="text8176"
         sodipodi:linespacing="125%"><tspan
           sodipodi:role="line"
           id="tspan8178"
           x="313.20676"
           y="1427.0204">✘</tspan></text>
      <text
         xml:space="preserve"
         style="color:#000000;font-style:normal;font-variant:normal;font-weight:normal;font-stretch:normal;font-size:41.64332962px;line-height:125%;font-family:'Source Sans Pro';-inkscape-font-specification:'Source Sans Pro';text-indent:0;text-align:start;text-decoration:none;text-decoration-line:none;text-decoration-style:solid;text-decoration-color:#000000;letter-spacing:0px;word-spacing:0px;text-transform:none;direction:ltr;block-progression:tb;writing-mode:lr-tb;baseline-shift:baseline;text-anchor:start;white-space:normal;clip-rule:nonzero;display:inline;overflow:visible;visibility:visible;opacity:1;isolation:auto;mix-blend-mode:normal;color-interpolation:sRGB;color-interpolation-filters:linearRGB;solid-color:#000000;solid-opacity:1;fill:#000000;fill-opacity:1;fill-rule:nonzero;stroke:none;stroke-width:1px;stroke-linecap:butt;stroke-linejoin:miter;stroke-miterlimit:4;stroke-dasharray:none;stroke-dashoffset:0;stroke-opacity:1;color-rendering:auto;image-rendering:auto;shape-rendering:auto;text-rendering:auto;enable-background:accumulate"
         x="237.20676"
         y="1453.0204"
         id="text8180"
         sodipodi:linespacing="125%"><tspan
           sodipodi:role="line"
           id="tspan8182"
           x="237.20676"
           y="1453.0204">✘</tspan></text>
      <text
         xml:space="preserve"
         style="color:#000000;font-style:normal;font-variant:normal;font-weight:normal;font-stretch:normal;font-size:41.64332962px;line-height:125%;font-family:'Source Sans Pro';-inkscape-font-specification:'Source Sans Pro';text-indent:0;text-align:start;text-decoration:none;text-decoration-line:none;text-decoration-style:solid;text-decoration-color:#000000;letter-spacing:0px;word-spacing:0px;text-transform:none;direction:ltr;block-progression:tb;writing-mode:lr-tb;baseline-shift:baseline;text-anchor:start;white-space:normal;clip-rule:nonzero;display:inline;overflow:visible;visibility:visible;opacity:1;isolation:auto;mix-blend-mode:normal;color-interpolation:sRGB;color-interpolation-filters:linearRGB;solid-color:#000000;solid-opacity:1;fill:#000000;fill-opacity:1;fill-rule:nonzero;stroke:none;stroke-width:1px;stroke-linecap:butt;stroke-linejoin:miter;stroke-miterlimit:4;stroke-dasharray:none;stroke-dashoffset:0;stroke-opacity:1;color-rendering:auto;image-rendering:auto;shape-rendering:auto;text-rendering:auto;enable-background:accumulate"
         x="341.20676"
         y="1209.0204"
         id="text8184"
         sodipodi:linespacing="125%"><tspan
           sodipodi:role="line"
           id="tspan8186"
           x="341.20676"
           y="1209.0204">✘</tspan></text>
      <text
         xml:space="preserve"
         style="color:#000000;font-style:normal;font-variant:normal;font-weight:normal;font-stretch:normal;font-size:41.64332962px;line-height:125%;font-family:'Source Sans Pro';-inkscape-font-specification:'Source Sans Pro';text-indent:0;text-align:start;text-decoration:none;text-decoration-line:none;text-decoration-style:solid;text-decoration-color:#000000;letter-spacing:0px;word-spacing:0px;text-transform:none;direction:ltr;block-progression:tb;writing-mode:lr-tb;baseline-shift:baseline;text-anchor:start;white-space:normal;clip-rule:nonzero;display:inline;overflow:visible;visibility:visible;opacity:1;isolation:auto;mix-blend-mode:normal;color-interpolation:sRGB;color-interpolation-filters:linearRGB;solid-color:#000000;solid-opacity:1;fill:#000000;fill-opacity:1;fill-rule:nonzero;stroke:none;stroke-width:1px;stroke-linecap:butt;stroke-linejoin:miter;stroke-miterlimit:4;stroke-dasharray:none;stroke-dashoffset:0;stroke-opacity:1;color-rendering:auto;image-rendering:auto;shape-rendering:auto;text-rendering:auto;enable-background:accumulate"
         x="339.20676"
         y="1306.0204"
         id="text8188"
         sodipodi:linespacing="125%"><tspan
           sodipodi:role="line"
           id="tspan8190"
           x="339.20676"
           y="1306.0204">✘</tspan></text>
      <text
         sodipodi:linespacing="125%"
         id="text8192"
         y="1336.0204"
         x="408.20676"
         style="color:#000000;font-style:normal;font-variant:normal;font-weight:normal;font-stretch:normal;font-size:41.64332962px;line-height:125%;font-family:'Source Sans Pro';-inkscape-font-specification:'Source Sans Pro';text-indent:0;text-align:start;text-decoration:none;text-decoration-line:none;text-decoration-style:solid;text-decoration-color:#000000;letter-spacing:0px;word-spacing:0px;text-transform:none;direction:ltr;block-progression:tb;writing-mode:lr-tb;baseline-shift:baseline;text-anchor:start;white-space:normal;clip-rule:nonzero;display:inline;overflow:visible;visibility:visible;opacity:1;isolation:auto;mix-blend-mode:normal;color-interpolation:sRGB;color-interpolation-filters:linearRGB;solid-color:#000000;solid-opacity:1;fill:#793588;fill-opacity:1;fill-rule:nonzero;stroke:none;stroke-width:1px;stroke-linecap:butt;stroke-linejoin:miter;stroke-miterlimit:4;stroke-dasharray:none;stroke-dashoffset:0;stroke-opacity:1;color-rendering:auto;image-rendering:auto;shape-rendering:auto;text-rendering:auto;enable-background:accumulate"
         xml:space="preserve"><tspan
           y="1336.0204"
           x="408.20676"
           id="tspan8194"
           sodipodi:role="line">✘</tspan></text>
    </g>
  </g>
</svg>
